<?xml version="1.0" standalone="no"?>
<!DOCTYPE svg PUBLIC "-//W3C//DTD SVG 20010904//EN"
 "http://www.w3.org/TR/2001/REC-SVG-20010904/DTD/svg10.dtd">
<svg version="1.0" xmlns="http://www.w3.org/2000/svg"
 width="198.000000pt" height="198.000000pt" viewBox="0 0 198.000000 198.000000"
 preserveAspectRatio="xMidYMid meet">

<g transform="translate(0.000000,198.000000) scale(0.100000,-0.100000)"
fill="#000000" stroke="none">
<path d="M0 990 l0 -990 990 0 990 0 0 990 0 990 -990 0 -990 0 0 -990z m360
-300 l0 -80 75 0 c69 0 75 -2 75 -20 0 -20 -5 -21 -87 -18 l-88 3 -3 98 c-2
82 0 97 13 97 12 0 15 -15 15 -80z m350 62 c18 -14 24 -32 28 -75 4 -50 2 -58
-21 -81 -22 -22 -35 -26 -80 -26 -80 0 -107 24 -107 96 0 77 27 104 103 104
38 0 62 -6 77 -18z m157 -54 l73 -72 0 72 c0 57 3 72 15 72 12 0 15 -18 15
-100 0 -78 -3 -100 -14 -100 -7 0 -43 32 -80 70 l-66 70 0 -70 c0 -56 -3 -70
-15 -70 -12 0 -15 18 -15 100 0 55 3 100 7 100 4 0 40 -33 80 -72z m338 52 c0
-12 -17 -16 -77 -18 l-78 -3 0 -59 0 -60 60 0 c53 0 60 2 60 20 0 17 -7 20
-45 20 -39 0 -45 3 -45 20 0 19 5 21 63 18 l62 -3 0 -55 0 -55 -79 -3 c-104
-4 -116 6 -116 99 0 89 14 101 120 97 59 -2 75 -6 75 -18z m188 9 c53 -24 65
-123 21 -164 -23 -21 -37 -25 -94 -25 -53 0 -69 4 -74 16 -11 29 -6 160 6 172
15 15 109 16 141 1z m257 -9 c0 -17 -7 -20 -40 -20 l-40 0 0 -80 c0 -64 -3
-80 -15 -80 -12 0 -15 16 -15 80 l0 80 -40 0 c-33 0 -40 3 -40 20 0 19 7 20
95 20 88 0 95 -1 95 -20z"/>
<path d="M570 711 c-38 -71 37 -140 110 -101 23 13 34 59 21 93 -10 25 -15 27
-65 27 -44 0 -57 -4 -66 -19z"/>
<path d="M1280 670 l0 -61 57 3 c55 3 58 4 67 35 7 25 5 38 -8 58 -14 21 -24
25 -66 25 l-50 0 0 -60z"/>
</g>
</svg>
